<svg id="visual" viewBox="0 0 960 540" width="960" height="540" xmlns="http://www.w3.org/2000/svg" xmlns:xlink="http://www.w3.org/1999/xlink" version="1.1"><rect x="0" y="0" width="960" height="540" fill="#0c0d30"></rect><path d="M420 0L452.3 18C484.7 36 549.3 72 528.7 108C508 144 402 180 349.2 216C296.3 252 296.7 288 331.3 324C366 360 435 396 444 432C453 468 402 504 376.5 522L351 540L0 540L0 522C0 504 0 468 0 432C0 396 0 360 0 324C0 288 0 252 0 216C0 180 0 144 0 108C0 72 0 36 0 18L0 0Z" fill="#ff0000" stroke-linecap="round" stroke-linejoin="miter"></path></svg>