<svg id="visual" viewBox="0 0 960 540" width="960" height="540" xmlns="http://www.w3.org/2000/svg" xmlns:xlink="http://www.w3.org/1999/xlink" version="1.1"><rect x="0" y="0" width="960" height="540" fill="#151532"></rect><path d="M512 0L520.5 22.5C529 45 546 90 535.3 135C524.7 180 486.3 225 459.7 270C433 315 418 360 422.2 405C426.3 450 449.7 495 461.3 517.5L473 540L0 540L0 517.5C0 495 0 450 0 405C0 360 0 315 0 270C0 225 0 180 0 135C0 90 0 45 0 22.5L0 0Z" fill="#ff0000" stroke-linecap="round" stroke-linejoin="miter"></path></svg>