<svg id="visual" viewBox="0 0 540 960" width="540" height="960" xmlns="http://www.w3.org/2000/svg" xmlns:xlink="http://www.w3.org/1999/xlink" version="1.1"><rect x="0" y="0" width="540" height="960" fill="#151532"></rect><path d="M0 166L12.8 159C25.7 152 51.3 138 77 158.2C102.7 178.3 128.3 232.7 154 267.5C179.7 302.3 205.3 317.7 231.2 328.3C257 339 283 345 308.8 346C334.7 347 360.3 343 386 339.8C411.7 336.7 437.3 334.3 463 310.5C488.7 286.7 514.3 241.3 527.2 218.7L540 196L540 0L527.2 0C514.3 0 488.7 0 463 0C437.3 0 411.7 0 386 0C360.3 0 334.7 0 308.8 0C283 0 257 0 231.2 0C205.3 0 179.7 0 154 0C128.3 0 102.7 0 77 0C51.3 0 25.7 0 12.8 0L0 0Z" fill="#ff0000" stroke-linecap="round" stroke-linejoin="miter"></path></svg>